{
  "accessors": [
    {
      "bufferView": 2,
      "componentType": 5126,
      "count": 312,
      "max": [
        34.596466064453125,
        35.29905700683594,
        35.43480682373047
      ],
      "min": [
        -34.596466064453125,
        -33.89387512207031,
        -107.23097229003906
      ],
      "type": "VEC3"
    },
    {
      "bufferView": 2,
      "byteOffset": 3744,
      "componentType": 5126,
      "count": 312,
      "max": [
        1.0,
        1.0,
        0.6536821722984314
      ],
      "min": [
        -1.0,
        -1.0,
        -0.9723996520042419
      ],
      "type": "VEC3"
    },
    {
      "bufferView": 1,
      "componentType": 5126,
      "count": 312,
      "max": [
        1.0,
        1.0
      ],
      "min": [
        -0.125,
        0.0
      ],
      "type": "VEC2"
    },
    {
      "bufferView": 0,
      "componentType": 5125,
      "count": 456,
      "type": "SCALAR"
    },
    {
      "bufferView": 2,
      "byteOffset": 7488,
      "componentType": 5126,
      "count": 191,
      "max": [
        28.664033889770508,
        28.664033889770508,
        5.115719859446338e-14
      ],
      "min": [
        -28.664033889770508,
        -28.66402816772461,
        -74.6350326538086
      ],
      "type": "VEC3"
    },
    {
      "bufferView": 2,
      "byteOffset": 9780,
      "componentType": 5126,
      "count": 191,
      "max": [
        0.9197980761528015,
        0.9197980761528015,
        0.2541889250278473
      ],
      "min": [
        -0.9197980165481567,
        -0.9197981953620911,
        -0.17810212075710297
      ],
      "type": "VEC3"
    },
    {
      "bufferView": 1,
      "byteOffset": 2496,
      "componentType": 5126,
      "count": 191,
      "max": [
        0.875,
        0.0
      ],
      "min": [
        -0.125,
        0.0
      ],
      "type": "VEC2"
    },
    {
      "bufferView": 0,
      "byteOffset": 1824,
      "componentType": 5125,
      "count": 192,
      "type": "SCALAR"
    },
    {
      "bufferView": 2,
      "byteOffset": 12072,
      "componentType": 5126,
      "count": 314,
      "max": [
        23.411035537719727,
        23.411039352416992,
        -11.253301620483398
      ],
      "min": [
        -23.411035537719727,
        -28.836864471435547,
        -86.2977066040039
      ],
      "type": "VEC3"
    },
    {
      "bufferView": 2,
      "byteOffset": 15840,
      "componentType": 5126,
      "count": 314,
      "max": [
        1.0,
        0.8952927589416504,
        0.9510566592216492
      ],
      "min": [
        -1.0,
        -1.0,
        -1.0
      ],
      "type": "VEC3"
    },
    {
      "bufferView": 1,
      "byteOffset": 4024,
      "componentType": 5126,
      "count": 314,
      "max": [
        0.9500000476837158,
        0.5
      ],
      "min": [
        -0.125,
        0.0
      ],
      "type": "VEC2"
    },
    {
      "bufferView": 0,
      "byteOffset": 2592,
      "componentType": 5125,
      "count": 378,
      "type": "SCALAR"
    },
    {
      "bufferView": 2,
      "byteOffset": 19608,
      "componentType": 5126,
      "count": 300,
      "max": [
        17.358993530273438,
        16.385955810546875,
        -79.8008804321289
      ],
      "min": [
        -17.358997344970703,
        -16.385948181152344,
        -154.53627014160156
      ],
      "type": "VEC3"
    },
    {
      "bufferView": 2,
      "byteOffset": 23208,
      "componentType": 5126,
      "count": 300,
      "max": [
        0.9653939604759216,
        0.9759653210639954,
        0.9977242946624756
      ],
      "min": [
        -0.9653939008712769,
        -0.9759652614593506,
        -0.9977242946624756
      ],
      "type": "VEC3"
    },
    {
      "bufferView": 1,
      "byteOffset": 6536,
      "componentType": 5126,
      "count": 300,
      "max": [
        0.9000000357627869,
        0.9998900294303894
      ],
      "min": [
        -0.19999998807907104,
        0.00010992809984600171
      ],
      "type": "VEC2"
    },
    {
      "bufferView": 0,
      "byteOffset": 4104,
      "componentType": 5125,
      "count": 300,
      "type": "SCALAR"
    },
    {
      "bufferView": 2,
      "byteOffset": 26808,
      "componentType": 5126,
      "count": 120,
      "max": [
        12.372624397277832,
        -28.836864471435547,
        -15.029265403747559
      ],
      "min": [
        -12.372625350952148,
        -41.84621047973633,
        -41.04795837402344
      ],
      "type": "VEC3"
    },
    {
      "bufferView": 2,
      "byteOffset": 28248,
      "componentType": 5126,
      "count": 120,
      "max": [
        0.9920780062675476,
        -0.12562376260757446,
        0.9435223340988159
      ],
      "min": [
        -0.982246994972229,
        -0.9435222148895264,
        -0.9435223340988159
      ],
      "type": "VEC3"
    },
    {
      "bufferView": 1,
      "byteOffset": 8936,
      "componentType": 5126,
      "count": 120,
      "max": [
        0.9500000476837158,
        1.0
      ],
      "min": [
        -0.09999996423721313,
        0.5
      ],
      "type": "VEC2"
    },
    {
      "bufferView": 0,
      "byteOffset": 5304,
      "componentType": 5125,
      "count": 120,
      "type": "SCALAR"
    }
  ],
  "asset": {
    "extras": {
      "author": "Billy Jackman (https://sketchfab.com/billyjackman3d)",
      "license": "CC-BY-4.0 (http://creativecommons.org/licenses/by/4.0/)",
      "source": "https://sketchfab.com/3d-models/rocket-ship-low-poly-96858de4225f42048c88be630697f9cb",
      "title": "Rocket Ship - Low Poly"
    },
    "generator": "Sketchfab-12.65.0",
    "version": "2.0"
  },
  "bufferViews": [
    {
      "buffer": 0,
      "byteLength": 5784,
      "name": "floatBufferViews",
      "target": 34963
    },
    {
      "buffer": 0,
      "byteLength": 9896,
      "byteOffset": 5784,
      "byteStride": 8,
      "name": "floatBufferViews",
      "target": 34962
    },
    {
      "buffer": 0,
      "byteLength": 29688,
      "byteOffset": 15680,
      "byteStride": 12,
      "name": "floatBufferViews",
      "target": 34962
    }
  ],
  "buffers": [
    {
      "byteLength": 45368,
      "uri": "scene.bin"
    }
  ],
  "materials": [
    {
      "doubleSided": true,
      "name": "Material_28",
      "pbrMetallicRoughness": {
        "baseColorFactor": [
          0.627451,
          0.0,
          0.0,
          1.0
        ],
        "metallicFactor": 0.0,
        "roughnessFactor": 0.8929713596497552
      }
    },
    {
      "doubleSided": true,
      "name": "Material_27",
      "pbrMetallicRoughness": {
        "baseColorFactor": [
          0.690196,
          0.690196,
          0.690196,
          1.0
        ],
        "metallicFactor": 0.0,
        "roughnessFactor": 0.8929713596497552
      }
    },
    {
      "doubleSided": true,
      "name": "Material_29",
      "pbrMetallicRoughness": {
        "baseColorFactor": [
          0.372549,
          0.372549,
          0.372549,
          1.0
        ],
        "metallicFactor": 0.0,
        "roughnessFactor": 0.8929713596497552
      }
    },
    {
      "doubleSided": true,
      "name": "Material_42",
      "pbrMetallicRoughness": {
        "baseColorFactor": [
          0.243137,
          0.243137,
          0.243137,
          1.0
        ],
        "metallicFactor": 0.0,
        "roughnessFactor": 0.8929713596497552
      }
    },
    {
      "doubleSided": true,
      "name": "Material_30",
      "pbrMetallicRoughness": {
        "baseColorFactor": [
          0.180392,
          0.658824,
          0.803922,
          1.0
        ],
        "metallicFactor": 0.0,
        "roughnessFactor": 0.037267751219395184
      }
    }
  ],
  "meshes": [
    {
      "name": "Rocket Ship 01_Material #28_0",
      "primitives": [
        {
          "attributes": {
            "NORMAL": 1,
            "POSITION": 0,
            "TEXCOORD_0": 2
          },
          "indices": 3,
          "material": 0,
          "mode": 4
        }
      ]
    },
    {
      "name": "Rocket Ship 01_Material #27_0",
      "primitives": [
        {
          "attributes": {
            "NORMAL": 5,
            "POSITION": 4,
            "TEXCOORD_0": 6
          },
          "indices": 7,
          "material": 1,
          "mode": 4
        }
      ]
    },
    {
      "name": "Rocket Ship 01_Material #29_0",
      "primitives": [
        {
          "attributes": {
            "NORMAL": 9,
            "POSITION": 8,
            "TEXCOORD_0": 10
          },
          "indices": 11,
          "material": 2,
          "mode": 4
        }
      ]
    },
    {
      "name": "Rocket Ship 01_Material #42_0",
      "primitives": [
        {
          "attributes": {
            "NORMAL": 13,
            "POSITION": 12,
            "TEXCOORD_0": 14
          },
          "indices": 15,
          "material": 3,
          "mode": 4
        }
      ]
    },
    {
      "name": "Rocket Ship 01_Material #30_0",
      "primitives": [
        {
          "attributes": {
            "NORMAL": 17,
            "POSITION": 16,
            "TEXCOORD_0": 18
          },
          "indices": 19,
          "material": 4,
          "mode": 4
        }
      ]
    }
  ],
  "nodes": [
    {
      "children": [
        1
      ],
      "matrix": [
        1.0,
        0.0,
        0.0,
        0.0,
        0.0,
        2.220446049250313e-16,
        -1.0,
        0.0,
        0.0,
        1.0,
        2.220446049250313e-16,
        0.0,
        0.0,
        0.0,
        0.0,
        1.0
      ],
      "name": "Sketchfab_model"
    },
    {
      "children": [
        2
      ],
      "matrix": [
        0.009999999776482582,
        0.0,
        0.0,
        0.0,
        0.0,
        0.0,
        0.009999999776482582,
        0.0,
        0.0,
        -0.009999999776482582,
        0.0,
        0.0,
        0.0,
        0.0,
        0.0,
        1.0
      ],
      "name": "a3257239ce964d2b859895baa6deef71.fbx"
    },
    {
      "children": [
        3
      ],
      "name": "RootNode"
    },
    {
      "children": [
        4
      ],
      "matrix": [
        0.7071067811865477,
        -0.7071067811865475,
        0.0,
        0.0,
        0.0,
        0.0,
        -1.0,
        0.0,
        0.7071067811865475,
        0.7071067811865477,
        0.0,
        0.0,
        9.5367431640625e-07,
        0.0,
        0.0,
        1.0
      ],
      "name": "Rocket Ship 01"
    },
    {
      "children": [
        5,
        6,
        7,
        8,
        9
      ],
      "matrix": [
        1.0,
        0.0,
        -0.0,
        0.0,
        0.0,
        1.0,
        0.0,
        0.0,
        0.0,
        0.0,
        1.0,
        0.0,
        0.0,
        3.2735767364501953,
        59.55073165893555,
        1.0
      ],
      "name": "Object_4"
    },
    {
      "mesh": 0,
      "name": "Rocket Ship 01_Material #28_0"
    },
    {
      "mesh": 1,
      "name": "Rocket Ship 01_Material #27_0"
    },
    {
      "mesh": 2,
      "name": "Rocket Ship 01_Material #29_0"
    },
    {
      "mesh": 3,
      "name": "Rocket Ship 01_Material #42_0"
    },
    {
      "mesh": 4,
      "name": "Rocket Ship 01_Material #30_0"
    }
  ],
  "scene": 0,
  "scenes": [
    {
      "name": "Sketchfab_Scene",
      "nodes": [
        0
      ]
    }
  ]
}
