{
  "accessors": [
    {
      "bufferView": 2,
      "componentType": 5126,
      "count": 18,
      "max": [
        -15.761310577392578,
        348.73980712890625,
        -49.86769104003906
      ],
      "min": [
        -20.291439056396484,
        301.63311767578125,
        -54.39787292480469
      ],
      "type": "VEC3"
    },
    {
      "bufferView": 2,
      "byteOffset": 216,
      "componentType": 5126,
      "count": 18,
      "max": [
        0.9464904069900513,
        0.03807907551527023,
        0.9464926719665527
      ],
      "min": [
        -0.9464935064315796,
        -6.248399699870788e-07,
        -0.9464824795722961
      ],
      "type": "VEC3"
    },
    {
      "bufferView": 1,
      "componentType": 5126,
      "count": 18,
      "max": [
        0.625,
        0.6884398460388184
      ],
      "min": [
        0.375,
        0.3125
      ],
      "type": "VEC2"
    },
    {
      "bufferView": 0,
      "componentType": 5125,
      "count": 48,
      "type": "SCALAR"
    },
    {
      "bufferView": 2,
      "byteOffset": 432,
      "componentType": 5126,
      "count": 18,
      "max": [
        -15.761310577392578,
        348.73980712890625,
        -49.86769104003906
      ],
      "min": [
        -20.291439056396484,
        301.63311767578125,
        -54.39787292480469
      ],
      "type": "VEC3"
    },
    {
      "bufferView": 2,
      "byteOffset": 648,
      "componentType": 5126,
      "count": 18,
      "max": [
        0.9458118081092834,
        1.0,
        0.9457902312278748
      ],
      "min": [
        -0.9458068609237671,
        -1.0,
        -0.9458046555519104
      ],
      "type": "VEC3"
    },
    {
      "bufferView": 1,
      "byteOffset": 144,
      "componentType": 5126,
      "count": 18,
      "max": [
        0.65625,
        1.0
      ],
      "min": [
        0.34375,
        1.4901161193847656e-08
      ],
      "type": "VEC2"
    },
    {
      "bufferView": 0,
      "byteOffset": 192,
      "componentType": 5125,
      "count": 48,
      "type": "SCALAR"
    },
    {
      "bufferView": 2,
      "byteOffset": 864,
      "componentType": 5126,
      "count": 208,
      "max": [
        2.3645896911621094,
        354.96649169921875,
        -32.95280456542969
      ],
      "min": [
        -38.417335510253906,
        277.720703125,
        -71.31278991699219
      ],
      "type": "VEC3"
    },
    {
      "bufferView": 2,
      "byteOffset": 3360,
      "componentType": 5126,
      "count": 208,
      "max": [
        0.9464959502220154,
        1.0,
        0.9464924931526184
      ],
      "min": [
        -0.9464858174324036,
        -0.9776175618171692,
        -0.9464909434318542
      ],
      "type": "VEC3"
    },
    {
      "bufferView": 1,
      "byteOffset": 288,
      "componentType": 5126,
      "count": 208,
      "max": [
        1.0,
        1.0
      ],
      "min": [
        0.0,
        0.0
      ],
      "type": "VEC2"
    },
    {
      "bufferView": 0,
      "byteOffset": 384,
      "componentType": 5125,
      "count": 744,
      "type": "SCALAR"
    },
    {
      "bufferView": 2,
      "byteOffset": 5856,
      "componentType": 5126,
      "count": 413,
      "max": [
        45.19455337524414,
        277.7210693359375,
        -3.0651397705078125
      ],
      "min": [
        -70.19206237792969,
        -11.246902465820313,
        -101.20057678222656
      ],
      "type": "VEC3"
    },
    {
      "bufferView": 2,
      "byteOffset": 10812,
      "componentType": 5126,
      "count": 413,
      "max": [
        0.9975916147232056,
        0.6722412705421448,
        0.9995578527450562
      ],
      "min": [
        -0.9975915551185608,
        -0.5019879937171936,
        -0.9995577335357666
      ],
      "type": "VEC3"
    },
    {
      "bufferView": 1,
      "byteOffset": 1952,
      "componentType": 5126,
      "count": 413,
      "max": [
        0.6922178268432617,
        0.945532500743866
      ],
      "min": [
        0.013032916933298111,
        0.004069305956363678
      ],
      "type": "VEC2"
    },
    {
      "bufferView": 0,
      "byteOffset": 3360,
      "componentType": 5125,
      "count": 1152,
      "type": "SCALAR"
    },
    {
      "bufferView": 2,
      "byteOffset": 15768,
      "componentType": 5126,
      "count": 133,
      "max": [
        6.228214263916016,
        22.588302612304688,
        -29.318649291992188
      ],
      "min": [
        -42.28096008300781,
        -11.246902465820313,
        -74.94703674316406
      ],
      "type": "VEC3"
    },
    {
      "bufferView": 2,
      "byteOffset": 17364,
      "componentType": 5126,
      "count": 133,
      "max": [
        0.9977044463157654,
        0.7746136784553528,
        0.9996610879898071
      ],
      "min": [
        -0.9977043867111206,
        -1.0,
        -0.9996612071990967
      ],
      "type": "VEC3"
    },
    {
      "bufferView": 1,
      "byteOffset": 5256,
      "componentType": 5126,
      "count": 133,
      "max": [
        0.0,
        0.0
      ],
      "min": [
        0.0,
        0.0
      ],
      "type": "VEC2"
    },
    {
      "bufferView": 0,
      "byteOffset": 7968,
      "componentType": 5125,
      "count": 360,
      "type": "SCALAR"
    },
    {
      "bufferView": 2,
      "byteOffset": 18960,
      "componentType": 5126,
      "count": 658,
      "max": [
        74.89794921875,
        97.13993835449219,
        39.25413513183594
      ],
      "min": [
        -110.1695327758789,
        -97.11711120605469,
        -143.85975646972656
      ],
      "type": "VEC3"
    },
    {
      "bufferView": 2,
      "byteOffset": 26856,
      "componentType": 5126,
      "count": 658,
      "max": [
        0.9987602233886719,
        0.9795928001403809,
        0.9987799525260925
      ],
      "min": [
        -0.9987736344337463,
        -0.985288679599762,
        -0.986457347869873
      ],
      "type": "VEC3"
    },
    {
      "bufferView": 1,
      "byteOffset": 6320,
      "componentType": 5126,
      "count": 658,
      "max": [
        0.998916745185852,
        0.9686663746833801
      ],
      "min": [
        0.6875868439674377,
        0.030286608263850212
      ],
      "type": "VEC2"
    },
    {
      "bufferView": 0,
      "byteOffset": 9408,
      "componentType": 5125,
      "count": 1656,
      "type": "SCALAR"
    }
  ],
  "asset": {
    "extras": {
      "author": "madalenacardoso (https://sketchfab.com/madalenacardoso)",
      "license": "CC-BY-4.0 (http://creativecommons.org/licenses/by/4.0/)",
      "source": "https://sketchfab.com/3d-models/spaceship-1efc26312afe4d4c907ffcdba12f4a6a",
      "title": "Spaceship"
    },
    "generator": "Sketchfab-12.68.0",
    "version": "2.0"
  },
  "bufferViews": [
    {
      "buffer": 0,
      "byteLength": 16032,
      "name": "floatBufferViews",
      "target": 34963
    },
    {
      "buffer": 0,
      "byteLength": 11584,
      "byteOffset": 16032,
      "byteStride": 8,
      "name": "floatBufferViews",
      "target": 34962
    },
    {
      "buffer": 0,
      "byteLength": 34752,
      "byteOffset": 27616,
      "byteStride": 12,
      "name": "floatBufferViews",
      "target": 34962
    }
  ],
  "buffers": [
    {
      "byteLength": 62368,
      "uri": "scene.bin"
    }
  ],
  "images": [
    {
      "uri": "textures/material_baseColor.jpeg"
    },
    {
      "uri": "textures/rocketship06lambert2_baseColor.jpeg"
    }
  ],
  "materials": [
    {
      "doubleSided": true,
      "name": "material",
      "pbrMetallicRoughness": {
        "baseColorTexture": {
          "index": 0
        },
        "metallicFactor": 0.0,
        "roughnessFactor": 0.6
      }
    },
    {
      "doubleSided": true,
      "name": "Default_Material",
      "pbrMetallicRoughness": {
        "baseColorFactor": [
          0.5,
          0.5,
          0.5,
          1.0
        ],
        "metallicFactor": 0.0,
        "roughnessFactor": 0.6
      }
    },
    {
      "doubleSided": true,
      "name": "helmet_white",
      "pbrMetallicRoughness": {
        "metallicFactor": 0.0,
        "roughnessFactor": 0.6
      }
    },
    {
      "doubleSided": true,
      "name": "rocketship06lambert2",
      "pbrMetallicRoughness": {
        "baseColorTexture": {
          "index": 1
        },
        "metallicFactor": 0.0,
        "roughnessFactor": 0.6
      }
    },
    {
      "doubleSided": true,
      "name": "lambert1",
      "pbrMetallicRoughness": {
        "metallicFactor": 0.0,
        "roughnessFactor": 0.6
      }
    },
    {
      "doubleSided": true,
      "name": "moon_white",
      "pbrMetallicRoughness": {
        "baseColorFactor": [
          1.0,
          0.981077,
          0.851,
          1.0
        ],
        "metallicFactor": 0.0,
        "roughnessFactor": 0.6
      }
    }
  ],
  "meshes": [
    {
      "name": "rocketship06:pCylinder2_red_0",
      "primitives": [
        {
          "attributes": {
            "NORMAL": 1,
            "POSITION": 0,
            "TEXCOORD_0": 2
          },
          "indices": 3,
          "material": 0,
          "mode": 4
        }
      ]
    },
    {
      "name": "rocketship06:pCylinder2_Default_Material_0",
      "primitives": [
        {
          "attributes": {
            "NORMAL": 5,
            "POSITION": 4,
            "TEXCOORD_0": 6
          },
          "indices": 7,
          "material": 1,
          "mode": 4
        }
      ]
    },
    {
      "name": "rocketship06:pCylinder2_helmet_white_0",
      "primitives": [
        {
          "attributes": {
            "NORMAL": 9,
            "POSITION": 8,
            "TEXCOORD_0": 10
          },
          "indices": 11,
          "material": 2,
          "mode": 4
        }
      ]
    },
    {
      "name": "rocketship06:pCylinder2_rocketship06:lambert2_0",
      "primitives": [
        {
          "attributes": {
            "NORMAL": 13,
            "POSITION": 12,
            "TEXCOORD_0": 14
          },
          "indices": 15,
          "material": 3,
          "mode": 4
        }
      ]
    },
    {
      "name": "rocketship06:pCylinder2_lambert1_0",
      "primitives": [
        {
          "attributes": {
            "NORMAL": 17,
            "POSITION": 16,
            "TEXCOORD_0": 18
          },
          "indices": 19,
          "material": 4,
          "mode": 4
        }
      ]
    },
    {
      "name": "rocketship06:pCylinder2_moon_white_0",
      "primitives": [
        {
          "attributes": {
            "NORMAL": 21,
            "POSITION": 20,
            "TEXCOORD_0": 22
          },
          "indices": 23,
          "material": 5,
          "mode": 4
        }
      ]
    }
  ],
  "nodes": [
    {
      "children": [
        1
      ],
      "matrix": [
        1.0,
        0.0,
        0.0,
        0.0,
        0.0,
        2.220446049250313e-16,
        -1.0,
        0.0,
        0.0,
        1.0,
        2.220446049250313e-16,
        0.0,
        0.0,
        0.0,
        0.0,
        1.0
      ],
      "name": "Sketchfab_model"
    },
    {
      "children": [
        2
      ],
      "matrix": [
        1.0,
        0.0,
        0.0,
        0.0,
        0.0,
        0.0,
        1.0,
        0.0,
        0.0,
        -1.0,
        0.0,
        0.0,
        0.0,
        0.0,
        0.0,
        1.0
      ],
      "name": "0b032f9008f64eb798707d7b5f3ff5e7.fbx"
    },
    {
      "children": [
        3
      ],
      "name": "Object_2"
    },
    {
      "children": [
        4
      ],
      "name": "RootNode"
    },
    {
      "children": [
        5
      ],
      "name": "rocketship06:nurbsCircle1",
      "scale": [
        0.005273494403809309,
        0.005273494403809309,
        0.005273494403809309
      ],
      "translation": [
        0.5355445742607117,
        2.887171983718872,
        3.7706358432769775
      ]
    },
    {
      "children": [
        6,
        7,
        8,
        9,
        10,
        11
      ],
      "name": "rocketship06:pCylinder2",
      "translation": [
        18.02637481689453,
        90.1041030883789,
        52.13277816772461
      ]
    },
    {
      "mesh": 0,
      "name": "rocketship06:pCylinder2_red_0"
    },
    {
      "mesh": 1,
      "name": "rocketship06:pCylinder2_Default_Material_0"
    },
    {
      "mesh": 2,
      "name": "rocketship06:pCylinder2_helmet_white_0"
    },
    {
      "mesh": 3,
      "name": "rocketship06:pCylinder2_rocketship06:lambert2_0"
    },
    {
      "mesh": 4,
      "name": "rocketship06:pCylinder2_lambert1_0"
    },
    {
      "mesh": 5,
      "name": "rocketship06:pCylinder2_moon_white_0"
    }
  ],
  "samplers": [
    {
      "magFilter": 9729,
      "minFilter": 9987,
      "wrapS": 10497,
      "wrapT": 10497
    }
  ],
  "scene": 0,
  "scenes": [
    {
      "name": "Sketchfab_Scene",
      "nodes": [
        0
      ]
    }
  ],
  "textures": [
    {
      "sampler": 0,
      "source": 0
    },
    {
      "sampler": 0,
      "source": 1
    }
  ]
}
