{
  "accessors": [
    {
      "bufferView": 1,
      "componentType": 5126,
      "count": 52464,
      "max": [
        0.7148657441139221,
        0.9877837300300598,
        0.7621045708656311
      ],
      "min": [
        -0.978914737701416,
        -1.0090458393096924,
        -0.639629065990448
      ],
      "type": "VEC3"
    },
    {
      "bufferView": 1,
      "byteOffset": 629568,
      "componentType": 5126,
      "count": 52464,
      "max": [
        0.9999842047691345,
        0.999991774559021,
        0.9998628497123718
      ],
      "min": [
        -0.9999831914901733,
        -0.9999738931655884,
        -0.9999829530715942
      ],
      "type": "VEC3"
    },
    {
      "bufferView": 0,
      "componentType": 5125,
      "count": 309480,
      "type": "SCALAR"
    }
  ],
  "asset": {
    "extras": {
      "author": "jacob_cash (https://sketchfab.com/jacob_cash)",
      "license": "CC-BY-4.0 (http://creativecommons.org/licenses/by/4.0/)",
      "source": "https://sketchfab.com/3d-models/003-asteroid-rock-acf400f6ccca400db89d845def013a88",
      "title": "003 Asteroid Rock"
    },
    "generator": "Sketchfab-12.67.0",
    "version": "2.0"
  },
  "bufferViews": [
    {
      "buffer": 0,
      "byteLength": 1237920,
      "name": "floatBufferViews",
      "target": 34963
    },
    {
      "buffer": 0,
      "byteLength": 1259136,
      "byteOffset": 1237920,
      "byteStride": 12,
      "name": "floatBufferViews",
      "target": 34962
    }
  ],
  "buffers": [
    {
      "byteLength": 2497056,
      "uri": "scene.bin"
    }
  ],
  "materials": [
    {
      "doubleSided": true,
      "name": "material_0",
      "pbrMetallicRoughness": {
        "metallicFactor": 0.0,
        "roughnessFactor": 0.6
      }
    }
  ],
  "meshes": [
    {
      "name": "Object_0",
      "primitives": [
        {
          "attributes": {
            "NORMAL": 1,
            "POSITION": 0
          },
          "indices": 2,
          "material": 0,
          "mode": 4
        }
      ]
    }
  ],
  "nodes": [
    {
      "children": [
        1
      ],
      "matrix": [
        1.0,
        0.0,
        0.0,
        0.0,
        0.0,
        2.220446049250313e-16,
        -1.0,
        0.0,
        0.0,
        1.0,
        2.220446049250313e-16,
        0.0,
        0.0,
        0.0,
        0.0,
        1.0
      ],
      "name": "Sketchfab_model"
    },
    {
      "children": [
        2
      ],
      "name": "Asteroids.OBJ.cleaner.materialmerger.gles"
    },
    {
      "mesh": 0,
      "name": "Object_2"
    }
  ],
  "scene": 0,
  "scenes": [
    {
      "name": "Sketchfab_Scene",
      "nodes": [
        0
      ]
    }
  ]
}
